<svg width="24" height="24" viewBox="0 0 24 24" fill="none" xmlns="http://www.w3.org/2000/svg">
    <path
        d="M19.1 10.66C20.211 11.974 19.98 13.582 19.98 15C19.98 18.906 14.713 20 12 20C9.28705 20 4.02005 18.906 4.02005 15C4.02005 13.582 3.78905 11.974 4.90005 10.66M19.1 10.66C18.905 10.43 18.67 10.21 18.384 10M19.1 10.66C19.8 11.063 19.979 9.555 19.98 9.062V7.188C19.98 5.563 18.863 5 17.905 5C16.948 5 15.032 6.563 14.394 6.563C13.628 6.563 13.48 6.406 12 6.406C10.52 6.406 10.372 6.563 9.60605 6.563C8.96805 6.563 7.05205 5 6.09505 5C5.13805 5 4.02005 5.563 4.02005 7.188V9.063C4.02205 9.555 4.20005 11.063 4.90005 10.66M4.90005 10.66C5.09505 10.43 5.33005 10.21 5.61605 10"
        stroke="white" stroke-width="1.5" stroke-linecap="round" />
    <path
        d="M12.826 16C12.826 16.173 12.465 16.313 12.019 16.313C11.574 16.313 11.213 16.173 11.213 16C11.213 15.827 11.574 15.688 12.019 15.688C12.464 15.688 12.826 15.828 12.826 16ZM15.5 13.594C15.5 14.025 15.283 14.375 15.016 14.375C14.749 14.375 14.532 14.025 14.532 13.594C14.532 13.163 14.749 12.813 15.016 12.813C15.283 12.813 15.5 13.164 15.5 13.594ZM9.49998 13.594C9.49998 14.025 9.28298 14.375 9.01598 14.375C8.74898 14.375 8.53198 14.025 8.53198 13.594C8.53198 13.163 8.74898 12.813 9.01598 12.813C9.28298 12.813 9.49998 13.164 9.49998 13.594Z"
        stroke="white" stroke-width="1.5" />
    <path
        d="M22 15.469C21.517 15.156 19.42 14.375 18.613 14.375M20.387 17.969C19.903 17.656 18.774 16.875 17.967 16.875M2 15.469C2.484 15.156 4.58 14.375 5.387 14.375M3.613 17.969C4.097 17.656 5.226 16.875 6.033 16.875"
        stroke="white" stroke-width="1.5" stroke-linecap="round" />
</svg>