<svg width="24" height="24" viewBox="0 0 24 24" fill="none" xmlns="http://www.w3.org/2000/svg">
    <path
        d="M11.634 14.085C11.5179 14.2011 11.3801 14.2932 11.2284 14.356C11.0768 14.4188 10.9142 14.4512 10.75 14.4512C10.5859 14.4512 10.4233 14.4188 10.2716 14.356C10.1199 14.2932 9.98212 14.2011 9.86603 14.085C9.74994 13.9689 9.65785 13.8311 9.59503 13.6794C9.5322 13.5278 9.49986 13.3652 9.49986 13.201C9.49986 13.0368 9.5322 12.8743 9.59503 12.7226C9.65785 12.5709 9.74994 12.4331 9.86603 12.317C10.1005 12.0826 10.4185 11.9509 10.75 11.9509C11.0816 11.9509 11.3996 12.0826 11.634 12.317C11.8685 12.5515 12.0002 12.8695 12.0002 13.201C12.0002 13.5326 11.8685 13.8506 11.634 14.085ZM18.146 2.71502C18.3085 2.5525 18.5015 2.42358 18.7138 2.33562C18.9261 2.24766 19.1537 2.20239 19.3835 2.20239C19.6134 2.20239 19.8409 2.24766 20.0533 2.33562C20.2656 2.42358 20.4585 2.5525 20.621 2.71502L21.328 3.42302C21.4905 3.58552 21.6195 3.77845 21.7074 3.99078C21.7954 4.20311 21.8407 4.43069 21.8407 4.66052C21.8407 4.89035 21.7954 5.11792 21.7074 5.33026C21.6195 5.54259 21.4905 5.73551 21.328 5.89802L16.228 10.998C16.4467 11.3226 16.5935 11.6901 16.6589 12.0759C16.7242 12.4618 16.7065 12.8571 16.607 13.2356C16.5074 13.614 16.3283 13.9669 16.0815 14.2707C15.8348 14.5744 15.5261 14.822 15.176 14.997L14.344 15.413C14.2248 15.4728 14.1285 15.57 14.0698 15.6898C14.0111 15.8095 13.9933 15.9452 14.019 16.076L14.034 16.149C14.208 17.0202 14.1321 17.9228 13.815 18.7527C13.498 19.5826 12.9526 20.3058 12.242 20.839C11.0811 21.7089 9.64557 22.1311 8.19859 22.0283C6.75161 21.9254 5.3902 21.3044 4.36403 20.279L3.76503 19.679C2.73996 18.6529 2.11908 17.2917 2.01623 15.8449C1.91337 14.3982 2.33543 12.9628 3.20503 11.802C3.7382 11.0914 4.46148 10.5461 5.29135 10.229C6.12122 9.91193 7.02385 9.83601 7.89503 10.01L7.96703 10.025C8.09802 10.051 8.23392 10.0333 8.35387 9.97457C8.47382 9.91586 8.57119 9.81941 8.63103 9.70002L9.04703 8.86702C9.22221 8.51729 9.46993 8.20892 9.77368 7.96247C10.0774 7.71602 10.4302 7.53715 10.8085 7.43779C11.1869 7.33843 11.582 7.32086 11.9677 7.38625C12.3533 7.45165 12.7206 7.5985 13.045 7.81702L18.146 2.71502ZM19.56 3.77602C19.5132 3.7293 19.4497 3.70307 19.3835 3.70307C19.3174 3.70307 19.2539 3.7293 19.207 3.77602L18.022 4.96102L19.082 6.02102L20.267 4.83702C20.2903 4.8138 20.3088 4.78621 20.3214 4.75584C20.334 4.72546 20.3405 4.6929 20.3405 4.66002C20.3405 4.62714 20.334 4.59457 20.3214 4.5642C20.3088 4.53383 20.2903 4.50624 20.267 4.48302L19.56 3.77602ZM18.022 7.08202L16.962 6.02202L13.611 9.37202C13.5414 9.44171 13.4587 9.497 13.3677 9.53472C13.2766 9.57244 13.1791 9.59186 13.0805 9.59186C12.982 9.59186 12.8844 9.57244 12.7934 9.53472C12.7024 9.497 12.6197 9.44171 12.55 9.37202L12.39 9.21302C12.25 9.07316 12.0787 8.96856 11.8903 8.90784C11.7019 8.84711 11.5018 8.83199 11.3064 8.86373C11.111 8.89546 10.926 8.97314 10.7665 9.09036C10.607 9.20759 10.4776 9.36102 10.389 9.53802L9.97203 10.371C9.7649 10.7844 9.42774 11.1183 9.01238 11.3213C8.59701 11.5244 8.12645 11.5854 7.67303 11.495L7.60103 11.481C7.00748 11.3624 6.39247 11.4139 5.82697 11.6298C5.26147 11.8457 4.76853 12.217 4.40503 12.701C3.75166 13.5731 3.43457 14.6516 3.5119 15.7385C3.58923 16.8255 4.05579 17.8482 4.82603 18.619L5.42503 19.218C6.19595 19.9879 7.21848 20.4541 8.30522 20.5312C9.39196 20.6083 10.4701 20.2912 11.342 19.638C11.8259 19.2746 12.1971 18.7818 12.413 18.2165C12.6288 17.6512 12.6805 17.0364 12.562 16.443L12.548 16.371C12.4575 15.9173 12.5185 15.4465 12.7218 15.0309C12.9251 14.6153 13.2593 14.278 13.673 14.071L14.506 13.655C14.6831 13.5664 14.8366 13.4369 14.9539 13.2773C15.0711 13.1177 15.1488 12.9325 15.1804 12.7369C15.2121 12.5414 15.1968 12.3412 15.1359 12.1527C15.075 11.9643 14.9701 11.793 14.83 11.653L14.671 11.493C14.5306 11.3524 14.4517 11.1618 14.4517 10.963C14.4517 10.7643 14.5306 10.5736 14.671 10.433L18.022 7.08202Z"
        fill="white" />
</svg>