<svg width="762" height="756" viewBox="0 0 762 756" fill="none" xmlns="http://www.w3.org/2000/svg">
    <path
        d="M344.512 635.602L315.754 630.357L316.518 626.17L350.234 632.319L336.126 709.667L331.168 708.763L344.512 635.602Z"
        fill="white" />
    <path
        d="M237.324 631.157C238.426 628.705 239.321 626.897 240.008 625.733L287.917 647.273C290.016 642.24 290.809 637.562 290.297 633.239C289.785 628.915 288.243 625.152 285.672 621.949C283.1 618.746 279.84 616.257 275.89 614.481C270.442 612.032 265.282 611.308 260.411 612.311C255.508 613.381 251.54 616.017 248.504 620.22L243.703 618.061C247.334 612.899 252.193 609.557 258.28 608.037C264.336 606.585 270.803 607.405 277.681 610.497C282.857 612.824 286.967 616.064 290.012 620.216C293.057 624.369 294.773 629.111 295.159 634.442C295.515 639.842 294.391 645.436 291.789 651.224C289.186 657.013 285.797 661.547 281.621 664.827C277.376 668.076 272.706 669.906 267.609 670.316C262.482 670.794 257.297 669.855 252.053 667.497C246.742 665.109 242.665 661.884 239.825 657.824C236.885 653.8 235.251 649.423 234.923 644.691C234.564 640.026 235.364 635.515 237.324 631.157ZM242.701 631.487C240.293 636.298 239.31 640.851 239.754 645.143C240.13 649.406 241.619 653.104 244.221 656.239C246.792 659.442 250.019 661.916 253.901 663.661C257.782 665.406 261.774 666.178 265.877 665.976C269.88 665.811 273.703 664.501 277.345 662.045C280.919 659.558 283.877 655.894 286.217 651.052L242.701 631.487Z"
        fill="white" />
    <path
        d="M195.937 628.433L220.309 596.453C223.025 592.89 224.25 589.928 223.984 587.566C223.673 585.264 221.855 582.846 218.529 580.311L213.095 576.17L215.811 572.607L221.868 577.223C226.085 580.437 228.456 583.793 228.981 587.291C229.402 590.804 227.848 594.876 224.318 599.508L199.946 631.488L207.25 637.055L204.603 640.529L197.298 634.962L187.93 647.255L183.921 644.2L193.29 631.907L178.948 620.977L181.595 617.503L195.937 628.433Z"
        fill="white" />
    <path d="M139.885 622.821L155.33 608.788L157.893 611.294L144.369 627.206L139.885 622.821Z" fill="white" />
    <path
        d="M177.981 529.835C182.044 535.281 184.174 540.633 184.37 545.89C184.521 551.087 182.538 555.547 178.422 559.27L175.341 555.14C178.29 552.475 179.732 549.163 179.667 545.206C179.558 541.188 177.829 536.935 174.48 532.447C171.712 528.736 168.597 526.496 165.134 525.726C161.567 524.94 158.407 525.574 155.654 527.628C153.739 529.057 152.63 530.816 152.326 532.906C151.917 534.981 152.031 537.131 152.668 539.358C153.304 541.585 154.35 544.484 155.804 548.057C157.525 552.362 158.763 555.957 159.517 558.841C160.212 561.77 160.212 564.704 159.517 567.644C158.823 570.584 156.92 573.215 153.808 575.537C151.534 577.234 148.926 578.108 145.984 578.16C142.982 578.257 139.997 577.503 137.029 575.898C134.062 574.292 131.417 571.934 129.095 568.822C125.3 563.735 123.528 558.675 123.78 553.643C123.927 548.596 126.156 544.278 130.466 540.69L133.48 544.73C130.382 547.321 128.686 550.542 128.393 554.394C128.099 558.246 129.493 562.237 132.573 566.366C135.163 569.837 138.204 572.04 141.696 572.975C145.188 573.91 148.221 573.417 150.794 571.497C153.068 569.801 154.455 567.788 154.953 565.46C155.348 563.116 155.242 560.727 154.636 558.291C153.925 555.84 152.828 552.746 151.344 549.009C149.697 544.928 148.563 541.535 147.943 538.831C147.218 536.111 147.157 533.408 147.762 530.722C148.306 528.08 149.954 525.732 152.707 523.678C155.221 521.803 158.009 520.794 161.07 520.653C164.132 520.511 167.147 521.243 170.114 522.849C173.082 524.454 175.704 526.783 177.981 529.835Z"
        fill="white" />
    <path
        d="M65.5404 403.619C64.483 396.756 65.8327 390.806 69.5896 385.77C73.2727 380.745 79.4313 377.568 88.0654 376.238L123.266 370.814L124.016 375.684L89.1479 381.057C81.9897 382.16 76.796 384.735 73.5668 388.784C70.2525 392.77 69.0558 397.751 69.9768 403.729C70.932 409.928 73.8396 414.579 78.6996 417.683C83.5597 420.787 90.0485 421.714 98.166 420.463L130.156 415.534L130.907 420.405L96.0384 425.777C88.8802 426.88 83.6865 429.456 80.4574 433.504C77.143 437.49 75.9463 442.472 76.8673 448.449C77.8225 454.648 80.7301 459.299 85.5901 462.403C90.4502 465.508 96.939 466.434 105.056 465.183L137.047 460.254L137.814 465.236L77.7078 474.497L76.9403 469.516L90.0021 467.503C85.0177 466.533 81.0548 464.349 78.1134 460.949C75.0869 457.487 73.1927 453.284 72.4309 448.339C71.5895 442.878 72.3065 437.971 74.5819 433.616C76.7721 429.199 80.5209 425.826 85.8282 423.497C80.0774 422.948 75.4873 420.86 72.0576 417.233C68.5542 413.618 66.3818 409.08 65.5404 403.619Z"
        fill="white" />
    <path
        d="M106.348 287.813C108.971 288.399 110.923 288.912 112.202 289.35L100.743 340.613C106.095 341.657 110.837 341.493 114.969 340.121C119.101 338.749 122.477 336.482 125.097 333.318C127.717 330.155 129.499 326.46 130.444 322.234C131.747 316.404 131.417 311.205 129.455 306.634C127.42 302.048 124.038 298.691 119.311 296.563L120.46 291.426C126.247 293.944 130.498 298.031 133.212 303.687C135.853 309.327 136.352 315.827 134.706 323.187C133.469 328.725 131.122 333.403 127.667 337.221C124.213 341.039 119.913 343.674 114.768 345.126C109.551 346.561 103.845 346.586 97.6516 345.202C91.4578 343.817 86.3343 341.409 82.2811 337.979C78.2442 334.475 75.512 330.268 74.0847 325.359C72.5844 320.433 72.4614 315.164 73.7156 309.554C74.986 303.87 77.3242 299.228 80.7302 295.628C84.0796 291.939 88.0389 289.458 92.6082 288.184C97.1046 286.894 101.685 286.77 106.348 287.813ZM107.107 293.146C101.909 291.755 97.2525 291.709 93.1367 293.008C89.0372 294.234 85.714 296.436 83.167 299.616C80.5472 302.779 78.7731 306.438 77.8446 310.591C76.9162 314.745 76.9638 318.81 77.9874 322.788C78.9544 326.677 81.0072 330.158 84.1457 333.231C87.3004 336.231 91.4848 338.391 96.6987 339.709L107.107 293.146Z"
        fill="white" />
    <path
        d="M118.891 265.246C113.447 262.131 109.295 258.336 106.436 253.862C103.614 249.322 102.195 244.51 102.179 239.426C102.2 234.277 103.62 229.239 106.438 224.314C109.627 218.74 113.695 214.788 118.642 212.457C123.588 210.125 128.613 209.387 133.715 210.242L119.911 202.344L122.414 197.969L175.201 228.171L172.698 232.545L158.796 224.592C162.184 228.594 164.14 233.37 164.665 238.917C165.162 244.363 163.835 249.841 160.683 255.349C157.865 260.275 154.242 264.052 149.814 266.679C145.358 269.205 140.458 270.402 135.114 270.27C129.743 270.035 124.335 268.361 118.891 265.246ZM146.256 217.417C141.655 214.784 137.048 213.439 132.436 213.381C127.796 213.221 123.591 214.256 119.82 216.486C115.985 218.679 112.899 221.817 110.563 225.9C108.116 230.177 106.905 234.474 106.93 238.789C106.891 243.068 108.102 247.116 110.564 250.933C113.025 254.75 116.654 258.03 121.45 260.774C126.245 263.518 130.912 264.984 135.45 265.171C139.988 265.359 144.124 264.37 147.857 262.205C151.628 259.975 154.718 256.754 157.128 252.541C159.464 248.458 160.638 244.227 160.65 239.846C160.634 235.364 159.413 231.181 156.989 227.3C154.5 223.381 150.922 220.087 146.256 217.417Z"
        fill="white" />
    <path
        d="M205.149 197.337C200.31 202.107 195.301 204.949 190.12 205.862C184.992 206.723 180.303 205.369 176.052 201.802L179.721 198.185C182.765 200.741 186.242 201.716 190.154 201.11C194.118 200.452 198.095 198.158 202.083 194.226C205.38 190.976 207.173 187.584 207.462 184.048C207.752 180.407 206.691 177.364 204.28 174.918C202.603 173.216 200.708 172.358 198.596 172.343C196.485 172.222 194.37 172.629 192.252 173.564C190.133 174.5 187.404 175.932 184.063 177.862C180.034 180.156 176.643 181.874 173.889 183.016C171.083 184.105 168.176 184.506 165.169 184.221C162.161 183.935 159.295 182.41 156.569 179.645C154.577 177.625 153.354 175.161 152.9 172.254C152.393 169.293 152.731 166.233 153.916 163.074C155.1 159.914 157.074 156.972 159.839 154.246C164.359 149.79 169.128 147.343 174.147 146.904C179.167 146.359 183.749 147.976 187.893 151.754L184.304 155.292C181.314 152.578 177.891 151.339 174.035 151.576C170.179 151.812 166.416 153.739 162.747 157.356C159.663 160.396 157.897 163.709 157.449 167.297C157.001 170.884 157.904 173.82 160.158 176.107C162.15 178.128 164.333 179.225 166.708 179.401C169.084 179.471 171.436 179.039 173.766 178.105C176.097 177.066 179.011 175.555 182.51 173.574C186.327 171.384 189.533 169.796 192.127 168.812C194.722 167.721 197.392 167.292 200.135 167.523C202.827 167.7 205.378 169.012 207.789 171.458C209.991 173.691 211.371 176.315 211.931 179.328C212.49 182.342 212.177 185.428 210.993 188.588C209.809 191.747 207.861 194.664 205.149 197.337Z"
        fill="white" />
    <path
        d="M248.633 92.1472L278.688 145.018L274.307 147.508L267.776 136.019C268.57 140.892 267.824 145.396 265.537 149.531C263.277 153.564 259.908 156.853 255.429 159.399C249.133 162.979 242.884 163.997 236.682 162.455C230.508 160.812 225.263 156.192 220.946 148.598L203.455 117.83L207.739 115.394L225.064 145.87C228.643 152.167 232.982 156.098 238.082 157.666C243.144 159.168 248.402 158.369 253.855 155.27C259.567 152.023 263.077 147.622 264.386 142.068C265.76 136.478 264.418 130.112 260.359 122.972L244.252 94.6379L248.633 92.1472Z"
        fill="white" />
    <path
        d="M291.226 90.0728C291.393 85.3535 292.977 81.3458 295.976 78.0499C298.954 74.6824 303.272 72.1657 308.931 70.4998L310.418 75.5495L308.806 76.0239C303.076 77.7109 298.798 80.7607 295.972 85.1732C293.124 89.514 292.787 95.3732 294.959 102.751L304.859 136.38L300.024 137.803L282.849 79.4629L287.683 78.0395L291.226 90.0728Z"
        fill="white" />
    <path
        d="M395.155 88.716C395.305 91.3999 395.343 93.4169 395.268 94.7671L342.822 97.6928C343.275 103.127 344.723 107.645 347.168 111.248C349.612 114.851 352.713 117.482 356.47 119.142C360.227 120.802 364.267 121.511 368.591 121.27C374.555 120.937 379.469 119.205 383.333 116.073C387.192 112.866 389.502 108.699 390.263 103.572L395.519 103.278C394.671 109.533 391.895 114.735 387.191 118.886C382.483 122.963 376.364 125.211 368.834 125.631C363.169 125.947 358.028 124.963 353.414 122.678C348.8 120.392 345.094 116.972 342.297 112.417C339.496 107.787 337.919 102.304 337.566 95.9669C337.212 89.6301 338.135 84.0447 340.333 79.2107C342.605 74.3727 345.91 70.5988 350.246 67.8891C354.577 65.1048 359.613 63.5526 365.354 63.2323C371.169 62.908 376.271 63.8946 380.662 66.1923C385.123 68.4113 388.589 71.5458 391.058 75.5959C393.523 79.5714 394.889 83.9448 395.155 88.716ZM390.229 90.8978C390.153 85.5177 388.93 81.0241 386.561 77.4172C384.265 73.8061 381.241 71.2078 377.488 69.6224C373.731 67.9624 369.728 67.2509 365.479 67.488C361.229 67.725 357.33 68.8773 353.781 70.9449C350.303 72.9337 347.512 75.8564 345.409 79.7128C343.38 83.5651 342.441 88.1793 342.591 93.5552L390.229 90.8978Z"
        fill="white" />
    <path
        d="M476.143 143.225C470.874 141.118 466.597 138.04 463.31 133.991C460.024 129.943 458.041 125.249 457.362 119.911C456.779 114.532 457.666 108.895 460.023 103.003C462.353 97.1791 465.604 92.5689 469.777 89.1717C473.978 85.7053 478.651 83.6739 483.795 83.0775C489.036 82.4396 494.291 83.1743 499.56 85.2816C504.828 87.389 509.106 90.467 512.392 94.5155C515.706 98.4948 517.668 103.14 518.278 108.45C518.958 113.788 518.119 119.403 515.762 125.296C513.405 131.189 510.126 135.869 505.925 139.335C501.752 142.732 497.045 144.75 491.804 145.388C486.632 146.053 481.412 145.333 476.143 143.225ZM477.807 139.066C481.897 140.702 486.07 141.325 490.327 140.937C494.681 140.507 498.681 138.85 502.327 135.966C505.974 133.082 508.892 128.901 511.083 123.425C513.246 118.017 514.001 113.012 513.349 108.408C512.698 103.805 510.964 99.8953 508.149 96.6786C505.362 93.3926 501.924 90.9317 497.834 89.2957C493.743 87.6597 489.556 87.0706 485.272 87.5282C481.084 87.9443 477.167 89.5944 473.521 92.4785C469.874 95.3626 466.97 99.5084 464.807 104.916C462.616 110.393 461.812 115.419 462.395 119.994C463.047 124.598 464.731 128.528 467.449 131.787C470.264 135.003 473.716 137.43 477.807 139.066Z"
        fill="white" />
    <path
        d="M599.449 148.652L561.47 196.151L557.534 193.003L565.787 182.681C561.555 185.224 557.095 186.199 552.407 185.606C547.824 185.001 543.52 183.089 539.496 179.872C533.84 175.349 530.579 169.922 529.714 163.59C528.955 157.247 531.303 150.663 536.758 143.84L558.86 116.198L562.709 119.275L540.817 146.655C536.294 152.312 534.249 157.799 534.682 163.116C535.161 168.375 537.85 172.963 542.749 176.88C547.881 180.983 553.269 182.614 558.912 181.773C564.614 180.979 570.03 177.374 575.159 170.959L595.513 145.504L599.449 148.652Z"
        fill="white" />
    <path
        d="M617.151 187.447C621.597 185.855 625.906 185.841 630.078 187.406C634.309 188.925 638.246 192.005 641.889 196.644L637.749 199.895L636.712 198.574C633.022 193.876 628.605 191.031 623.46 190.04C618.373 189.003 612.805 190.86 606.757 195.61L579.186 217.261L576.074 213.297L623.904 175.736L627.016 179.7L617.151 187.447Z"
        fill="white" />
    <path
        d="M663.574 273.135C668.785 273.416 673.519 275.273 677.776 278.706C682.053 282.21 685.084 287.047 686.867 293.216C688.443 298.667 688.623 303.862 687.408 308.799C686.213 313.807 683.698 318.149 679.864 321.822C676.05 325.567 671.13 328.311 665.105 330.052C659.079 331.794 653.419 332.109 648.123 330.997C642.92 329.937 638.441 327.617 634.686 324.039C631.024 320.512 628.405 316.023 626.829 310.571C625.067 304.474 625.059 298.803 626.807 293.556C628.647 288.361 631.65 284.228 635.815 281.159L592.992 293.538L591.592 288.696L677.561 263.845L678.96 268.687L663.574 273.135ZM663.674 325.103C668.982 323.569 673.282 321.237 676.575 318.109C679.868 314.981 681.99 311.298 682.941 307.059C683.984 302.871 683.822 298.41 682.453 293.676C681.147 289.157 678.889 285.379 675.68 282.343C672.542 279.286 668.7 277.288 664.153 276.348C659.679 275.388 654.895 275.644 649.802 277.116C644.638 278.609 640.383 280.965 637.04 284.186C633.767 287.386 631.584 291.126 630.49 295.406C629.467 299.666 629.609 304.055 630.915 308.574C632.284 313.308 634.527 317.168 637.644 320.153C640.781 323.21 644.577 325.183 649.031 326.071C653.485 326.96 658.366 326.637 663.674 325.103Z"
        fill="white" />
    <path
        d="M710.706 355.904C710.622 354.712 710.924 353.681 711.611 352.809C712.373 351.932 713.424 351.447 714.765 351.353C716.031 351.264 717.103 351.601 717.98 352.362C718.856 353.124 719.337 354.101 719.42 355.293C719.504 356.485 719.165 357.519 718.403 358.396C717.641 359.272 716.627 359.755 715.361 359.844C714.02 359.938 712.911 359.604 712.035 358.842C711.232 358.075 710.789 357.096 710.706 355.904ZM697.359 359.31L636.692 363.566L636.34 358.538L697.007 354.283L697.359 359.31Z"
        fill="white" />
    <path
        d="M668.973 387.396C675.266 388.217 680.585 390.154 684.931 393.206C689.267 396.333 692.371 400.239 694.244 404.927C696.181 409.698 696.778 414.934 696.034 420.635C695.048 428.186 692.353 434.122 687.948 438.442C683.534 442.835 678.066 445.209 671.545 445.562L672.226 440.342C677.534 440.057 681.935 438.071 685.428 434.385C688.912 430.774 691.04 426.007 691.813 420.084C692.393 415.641 691.921 411.476 690.395 407.587C688.944 403.708 686.327 400.392 682.545 397.639C678.827 394.97 674.081 393.258 668.306 392.504C662.457 391.741 657.393 392.172 653.115 393.797C648.827 395.496 645.446 398.029 642.974 401.396C640.501 404.763 638.975 408.667 638.395 413.11C637.621 419.033 638.455 424.187 640.894 428.571C643.324 433.03 647.068 436.079 652.125 437.718L651.443 442.938C645.305 440.932 640.629 437.234 637.417 431.845C634.205 426.456 633.087 420.022 634.063 412.544C634.808 406.843 636.728 401.936 639.826 397.822C642.913 393.783 646.954 390.809 651.947 388.9C657.004 387.076 662.68 386.574 668.973 387.396Z"
        fill="white" />
    <path
        d="M613.202 488.264L648.913 473.876L622.991 463.591L624.85 458.906L701.888 489.471L700.029 494.156L653.91 475.858L669.896 510.276L667.294 516.834L650.049 478.303L610.641 494.719L613.202 488.264Z"
        fill="white" />
    <path d="M671.34 553.887L600.134 511.475L602.713 507.145L673.919 549.557L671.34 553.887Z" fill="white" />
    <path
        d="M577.114 595.05C575.124 593.243 573.681 591.833 572.787 590.819L608.091 551.924C603.954 548.371 599.751 546.17 595.481 545.319C591.211 544.468 587.156 544.77 583.315 546.225C579.474 547.679 576.098 550.01 573.187 553.217C569.172 557.64 566.888 562.323 566.334 567.265C565.836 572.258 567.115 576.848 570.172 581.034L566.634 584.932C562.848 579.882 561.174 574.228 561.611 567.97C562.104 561.761 564.884 555.865 569.953 550.281C573.767 546.079 578.119 543.173 583.01 541.562C587.901 539.951 592.941 539.786 598.13 541.068C603.375 542.4 608.347 545.199 613.046 549.464C617.746 553.73 621.009 558.356 622.836 563.342C624.613 568.383 624.908 573.39 623.721 578.364C622.59 583.387 620.092 588.027 616.228 592.285C612.314 596.597 607.987 599.476 603.246 600.921C598.511 602.472 593.843 602.671 589.241 601.519C584.695 600.418 580.653 598.261 577.114 595.05ZM579.092 590.038C582.922 593.817 586.947 596.16 591.167 597.065C595.336 598.027 599.314 597.755 603.1 596.25C606.941 594.796 610.292 592.493 613.152 589.341C616.013 586.19 617.981 582.632 619.058 578.669C620.14 574.81 620.077 570.77 618.868 566.547C617.609 562.379 615.039 558.433 611.159 554.709L579.092 590.038Z"
        fill="white" />
    <path
        d="M518.668 593.395C524.379 589.714 529.864 587.956 535.122 588.121C540.318 588.326 544.632 590.61 548.064 594.971L543.733 597.762C541.276 594.638 538.071 592.972 534.118 592.766C530.103 592.599 525.741 594.033 521.034 597.066C517.142 599.574 514.694 602.528 513.688 605.93C512.66 609.435 513.076 612.631 514.937 615.518C516.231 617.527 517.91 618.754 519.974 619.201C522.016 619.75 524.17 619.784 526.435 619.301C528.7 618.819 531.664 617.974 535.328 616.768C539.741 615.346 543.412 614.357 546.341 613.802C549.311 613.31 552.238 613.511 555.124 614.405C558.009 615.299 560.504 617.378 562.607 620.642C564.144 623.027 564.837 625.689 564.688 628.627C564.579 631.629 563.622 634.555 561.817 637.406C560.012 640.256 557.478 642.733 554.214 644.836C548.879 648.274 543.71 649.695 538.708 649.099C533.682 648.607 529.528 646.088 526.243 641.542L530.48 638.812C532.852 642.08 535.95 643.993 539.773 644.549C543.596 645.106 547.672 643.989 552.003 641.198C555.644 638.852 558.05 635.97 559.221 632.55C560.393 629.13 560.109 626.071 558.37 623.372C556.833 620.987 554.921 619.466 552.632 618.809C550.321 618.255 547.93 618.197 545.458 618.635C542.964 619.176 539.802 620.059 535.972 621.283C531.788 622.647 528.326 623.546 525.585 623.979C522.822 624.516 520.121 624.391 517.482 623.604C514.884 622.88 512.655 621.075 510.794 618.188C509.096 615.551 508.281 612.701 508.349 609.637C508.417 606.573 509.354 603.615 511.159 600.765C512.964 597.914 515.467 595.457 518.668 593.395Z"
        fill="white" />
    <path d="M426.99 675.216L426.132 670.933L467.424 662.662L468.282 666.945L426.99 675.216Z" fill="white" />
</svg>